{
  "accessors": [
    {
      "bufferView": 2,
      "componentType": 5126,
      "count": 1556,
      "max": [
        0.3489769995212555,
        0.6846896409988403,
        0.33429062366485596
      ],
      "min": [
        -0.3489769995212555,
        -0.6846897006034851,
        -0.32529211044311523
      ],
      "type": "VEC3"
    },
    {
      "bufferView": 2,
      "byteOffset": 18672,
      "componentType": 5126,
      "count": 1556,
      "max": [
        0.9982537031173706,
        0.999972403049469,
        0.9997869729995728
      ],
      "min": [
        -0.998969554901123,
        -0.9999724626541138,
        -0.9998738169670105
      ],
      "type": "VEC3"
    },
    {
      "bufferView": 1,
      "componentType": 5126,
      "count": 1556,
      "max": [
        0.977400004863739,
        0.7675999999046326
      ],
      "min": [
        0.030899999663233757,
        0.0
      ],
      "type": "VEC2"
    },
    {
      "bufferView": 0,
      "componentType": 5125,
      "count": 5757,
      "type": "SCALAR"
    },
    {
      "bufferView": 2,
      "byteOffset": 37344,
      "componentType": 5126,
      "count": 19,
      "max": [
        0.11541175842285156,
        -0.22505193948745728,
        -0.3003636598587036
      ],
      "min": [
        0.020500153303146362,
        -0.3219136595726013,
        -0.33429062366485596
      ],
      "type": "VEC3"
    },
    {
      "bufferView": 2,
      "byteOffset": 37572,
      "componentType": 5126,
      "count": 19,
      "max": [
        0.8079686760902405,
        0.7606591582298279,
        -0.5756986737251282
      ],
      "min": [
        -0.7652134299278259,
        -0.7855539321899414,
        -0.9998953938484192
      ],
      "type": "VEC3"
    },
    {
      "bufferView": 1,
      "byteOffset": 12448,
      "componentType": 5126,
      "count": 19,
      "max": [
        0.9523000121116638,
        0.951200008392334
      ],
      "min": [
        0.5885000228881836,
        0.597100019454956
      ],
      "type": "VEC2"
    },
    {
      "bufferView": 0,
      "byteOffset": 23028,
      "componentType": 5125,
      "count": 72,
      "type": "SCALAR"
    },
    {
      "bufferView": 2,
      "byteOffset": 37800,
      "componentType": 5126,
      "count": 42,
      "max": [
        0.14350172877311707,
        -0.19749528169631958,
        -0.16215842962265015
      ],
      "min": [
        -0.007589809596538544,
        -0.3485831022262573,
        -0.3132461905479431
      ],
      "type": "VEC3"
    },
    {
      "bufferView": 2,
      "byteOffset": 38304,
      "componentType": 5126,
      "count": 42,
      "max": [
        1.0,
        0.9999752640724182,
        0.9999752640724182
      ],
      "min": [
        -1.0,
        -0.9999752640724182,
        -0.9999752640724182
      ],
      "type": "VEC3"
    },
    {
      "bufferView": 1,
      "byteOffset": 12600,
      "componentType": 5126,
      "count": 42,
      "max": [
        0.8603000044822693,
        0.39670002460479736
      ],
      "min": [
        0.5497000217437744,
        0.05500000715255737
      ],
      "type": "VEC2"
    },
    {
      "bufferView": 0,
      "byteOffset": 23316,
      "componentType": 5125,
      "count": 240,
      "type": "SCALAR"
    },
    {
      "bufferView": 2,
      "byteOffset": 38808,
      "componentType": 5126,
      "count": 19,
      "max": [
        -0.025853127241134644,
        -0.22505193948745728,
        -0.3003636598587036
      ],
      "min": [
        -0.11627903580665588,
        -0.3219136595726013,
        -0.33429062366485596
      ],
      "type": "VEC3"
    },
    {
      "bufferView": 2,
      "byteOffset": 39036,
      "componentType": 5126,
      "count": 19,
      "max": [
        0.8212131261825562,
        0.7856114506721497,
        0.9998925924301147
      ],
      "min": [
        -0.7802815437316895,
        -0.760658860206604,
        0.5662655830383301
      ],
      "type": "VEC3"
    },
    {
      "bufferView": 1,
      "byteOffset": 12936,
      "componentType": 5126,
      "count": 19,
      "max": [
        0.9523000121116638,
        0.951200008392334
      ],
      "min": [
        0.5885000228881836,
        0.597100019454956
      ],
      "type": "VEC2"
    },
    {
      "bufferView": 0,
      "byteOffset": 24276,
      "componentType": 5125,
      "count": 72,
      "type": "SCALAR"
    },
    {
      "bufferView": 2,
      "byteOffset": 39264,
      "componentType": 5126,
      "count": 42,
      "max": [
        0.0009092465043067932,
        -0.19749528169631958,
        -0.16215842962265015
      ],
      "min": [
        -0.14304140210151672,
        -0.3485831022262573,
        -0.3132461905479431
      ],
      "type": "VEC3"
    },
    {
      "bufferView": 2,
      "byteOffset": 39768,
      "componentType": 5126,
      "count": 42,
      "max": [
        1.0,
        0.9999752044677734,
        0.9999752044677734
      ],
      "min": [
        -1.0,
        -0.9999752044677734,
        -0.9999752640724182
      ],
      "type": "VEC3"
    },
    {
      "bufferView": 1,
      "byteOffset": 13088,
      "componentType": 5126,
      "count": 42,
      "max": [
        0.8603000044822693,
        0.39670002460479736
      ],
      "min": [
        0.5497000217437744,
        0.05500000715255737
      ],
      "type": "VEC2"
    },
    {
      "bufferView": 0,
      "byteOffset": 24564,
      "componentType": 5125,
      "count": 240,
      "type": "SCALAR"
    },
    {
      "bufferView": 2,
      "byteOffset": 40272,
      "componentType": 5126,
      "count": 52,
      "max": [
        0.007651783525943756,
        -0.20053207874298096,
        -0.15869943797588348
      ],
      "min": [
        -0.1497839391231537,
        -0.35854387283325195,
        -0.31404006481170654
      ],
      "type": "VEC3"
    },
    {
      "bufferView": 2,
      "byteOffset": 40896,
      "componentType": 5126,
      "count": 52,
      "max": [
        0.9394015073776245,
        0.9995269775390625,
        0.9545029401779175
      ],
      "min": [
        -0.8954328298568726,
        -0.781999945640564,
        -0.9925866723060608
      ],
      "type": "VEC3"
    },
    {
      "bufferView": 1,
      "byteOffset": 13424,
      "componentType": 5126,
      "count": 52,
      "max": [
        0.4274671971797943,
        0.06721043586730957
      ],
      "min": [
        0.3744937479496002,
        0.009931743144989014
      ],
      "type": "VEC2"
    },
    {
      "bufferView": 0,
      "byteOffset": 25524,
      "componentType": 5125,
      "count": 249,
      "type": "SCALAR"
    }
  ],
  "asset": {
    "extras": {
      "author": "Bielg3GetsNintendo (https://sketchfab.com/Bielg3GetsNintendo)",
      "license": "CC-BY-4.0 (http://creativecommons.org/licenses/by/4.0/)",
      "source": "https://sketchfab.com/3d-models/bombsquad-spaz-20-0ce6732f2c96492aaa8e966368be8436",
      "title": "Bombsquad Spaz 2.0"
    },
    "generator": "Sketchfab-14.87.0",
    "version": "2.0"
  },
  "bufferViews": [
    {
      "buffer": 0,
      "byteLength": 26520,
      "name": "floatBufferViews",
      "target": 34963
    },
    {
      "buffer": 0,
      "byteLength": 13840,
      "byteOffset": 26520,
      "byteStride": 8,
      "name": "floatBufferViews",
      "target": 34962
    },
    {
      "buffer": 0,
      "byteLength": 41520,
      "byteOffset": 40360,
      "byteStride": 12,
      "name": "floatBufferViews",
      "target": 34962
    }
  ],
  "buffers": [
    {
      "byteLength": 81880,
      "uri": "scene.bin"
    }
  ],
  "extensionsUsed": [
    "KHR_materials_specular"
  ],
  "images": [
    {
      "uri": "textures/None_baseColor.png"
    },
    {
      "uri": "textures/None.006_baseColor.png"
    }
  ],
  "materials": [
    {
      "doubleSided": true,
      "extensions": {
        "KHR_materials_specular": {
          "specularColorFactor": [
            1.0,
            1.0,
            1.0
          ],
          "specularFactor": 1.0
        }
      },
      "name": "None",
      "pbrMetallicRoughness": {
        "baseColorTexture": {
          "index": 0
        },
        "metallicFactor": 0.0
      }
    },
    {
      "doubleSided": true,
      "name": "Materiais",
      "pbrMetallicRoughness": {
        "baseColorFactor": [
          0.0254348,
          0.00310095,
          0.152324,
          1.0
        ],
        "metallicFactor": 0.0,
        "roughnessFactor": 0.5
      }
    },
    {
      "doubleSided": true,
      "extensions": {
        "KHR_materials_specular": {
          "specularColorFactor": [
            1.0,
            1.0,
            1.0
          ],
          "specularFactor": 1.0
        }
      },
      "name": "None.006",
      "pbrMetallicRoughness": {
        "baseColorTexture": {
          "index": 1
        },
        "metallicFactor": 0.0
      }
    },
    {
      "doubleSided": true,
      "name": "Materiais.001",
      "pbrMetallicRoughness": {
        "baseColorFactor": [
          0.0254348,
          0.00310095,
          0.152324,
          1.0
        ],
        "metallicFactor": 0.0,
        "roughnessFactor": 0.5
      }
    },
    {
      "doubleSided": true,
      "extensions": {
        "KHR_materials_specular": {
          "specularColorFactor": [
            1.0,
            1.0,
            1.0
          ],
          "specularFactor": 1.0
        }
      },
      "name": "None.007",
      "pbrMetallicRoughness": {
        "baseColorTexture": {
          "index": 1
        },
        "metallicFactor": 0.0
      }
    },
    {
      "doubleSided": true,
      "extensions": {
        "KHR_materials_specular": {
          "specularColorFactor": [
            1.0,
            1.0,
            1.0
          ],
          "specularFactor": 1.0
        }
      },
      "name": "None.008",
      "pbrMetallicRoughness": {
        "baseColorTexture": {
          "index": 0
        },
        "metallicFactor": 0.0
      }
    }
  ],
  "meshes": [
    {
      "name": "Object_0",
      "primitives": [
        {
          "attributes": {
            "NORMAL": 1,
            "POSITION": 0,
            "TEXCOORD_0": 2
          },
          "indices": 3,
          "material": 0,
          "mode": 4
        }
      ]
    },
    {
      "name": "Object_1",
      "primitives": [
        {
          "attributes": {
            "NORMAL": 5,
            "POSITION": 4,
            "TEXCOORD_0": 6
          },
          "indices": 7,
          "material": 1,
          "mode": 4
        }
      ]
    },
    {
      "name": "Object_2",
      "primitives": [
        {
          "attributes": {
            "NORMAL": 9,
            "POSITION": 8,
            "TEXCOORD_0": 10
          },
          "indices": 11,
          "material": 2,
          "mode": 4
        }
      ]
    },
    {
      "name": "Object_3",
      "primitives": [
        {
          "attributes": {
            "NORMAL": 13,
            "POSITION": 12,
            "TEXCOORD_0": 14
          },
          "indices": 15,
          "material": 3,
          "mode": 4
        }
      ]
    },
    {
      "name": "Object_4",
      "primitives": [
        {
          "attributes": {
            "NORMAL": 17,
            "POSITION": 16,
            "TEXCOORD_0": 18
          },
          "indices": 19,
          "material": 4,
          "mode": 4
        }
      ]
    },
    {
      "name": "Object_5",
      "primitives": [
        {
          "attributes": {
            "NORMAL": 21,
            "POSITION": 20,
            "TEXCOORD_0": 22
          },
          "indices": 23,
          "material": 5,
          "mode": 4
        }
      ]
    }
  ],
  "nodes": [
    {
      "children": [
        1
      ],
      "matrix": [
        1.0,
        0.0,
        0.0,
        0.0,
        0.0,
        2.220446049250313e-16,
        -1.0,
        0.0,
        0.0,
        1.0,
        2.220446049250313e-16,
        0.0,
        0.0,
        0.0,
        0.0,
        1.0
      ],
      "name": "Sketchfab_model"
    },
    {
      "children": [
        2
      ],
      "name": "root"
    },
    {
      "children": [
        3
      ],
      "matrix": [
        1.0,
        0.0,
        0.0,
        0.0,
        0.0,
        2.220446049250313e-16,
        1.0,
        0.0,
        0.0,
        -1.0,
        2.220446049250313e-16,
        0.0,
        0.0,
        0.0,
        0.0,
        1.0
      ],
      "name": "GLTF_SceneRootNode"
    },
    {
      "children": [
        4,
        5,
        6,
        7,
        8,
        9
      ],
      "matrix": [
        1.0,
        0.0,
        -0.0,
        0.0,
        -0.0,
        -0.9999751899753697,
        -0.007044106311201181,
        0.0,
        0.0,
        0.007044106311201181,
        -0.9999751899753697,
        0.0,
        -0.07839743793010712,
        0.726398229598999,
        0.0,
        1.0
      ],
      "name": "Spaz_0"
    },
    {
      "mesh": 0,
      "name": "Object_4"
    },
    {
      "mesh": 1,
      "name": "Object_5"
    },
    {
      "mesh": 2,
      "name": "Object_6"
    },
    {
      "mesh": 3,
      "name": "Object_7"
    },
    {
      "mesh": 4,
      "name": "Object_8"
    },
    {
      "mesh": 5,
      "name": "Object_9"
    }
  ],
  "samplers": [
    {
      "magFilter": 9729,
      "minFilter": 9987,
      "wrapS": 10497,
      "wrapT": 10497
    }
  ],
  "scene": 0,
  "scenes": [
    {
      "name": "Sketchfab_Scene",
      "nodes": [
        0
      ]
    }
  ],
  "textures": [
    {
      "sampler": 0,
      "source": 0
    },
    {
      "sampler": 0,
      "source": 1
    }
  ]
}
